<svg xmlns="http://www.w3.org/2000/svg" viewBox="0 0 48 48" style="color:#000"><path d="M24 7 C13.5 7 6 14.5 6 23.5 C6 33 13.5 41 23 41 C26.5 41 27.6 38.4 26 35.8 C24.4 33.2 25.6 30.5 29 30.5 H34 C38.5 30.5 42 27 42 22.5 C42 13.5 34 7 24 7 Z" fill="currentColor" fill-opacity="0.3"/><path d="M24 7 C13.5 7 6 14.5 6 23.5 C6 33 13.5 41 23 41 C26.5 41 27.6 38.4 26 35.8 C24.4 33.2 25.6 30.5 29 30.5 H34 C38.5 30.5 42 27 42 22.5 C42 13.5 34 7 24 7 Z" fill="none" stroke="currentColor" stroke-width="3.2" stroke-linecap="round" stroke-linejoin="round"/><circle cx="15" cy="21.5" r="2.9" fill="currentColor"/><circle cx="19.8" cy="14.2" r="2.9" fill="currentColor"/><circle cx="28.4" cy="13.2" r="2.9" fill="currentColor"/><circle cx="35" cy="19.6" r="2.9" fill="currentColor"/></svg>
