<svg xmlns="http://www.w3.org/2000/svg" viewBox="0 0 48 48" style="color:#000"><path d="M7 23.5 H41 C41 33 33.5 39.5 24 39.5 C14.5 39.5 7 33 7 23.5 Z" fill="currentColor" fill-opacity="0.3"/><path d="M7 23.5 H41 C41 33 33.5 39.5 24 39.5 C14.5 39.5 7 33 7 23.5 Z" fill="none" stroke="currentColor" stroke-width="3.2" stroke-linecap="round" stroke-linejoin="round"/><path d="M5.5 23.5 H42.5" fill="none" stroke="currentColor" stroke-width="3.2" stroke-linecap="round" stroke-linejoin="round"/><path d="M18.5 43 H29.5" fill="none" stroke="currentColor" stroke-width="3.2" stroke-linecap="round" stroke-linejoin="round"/><path d="M15.5 18 C13.5 15.6 17.5 13.6 15.5 10.6" fill="none" stroke="currentColor" stroke-width="2.6" stroke-linecap="round" stroke-linejoin="round"/><path d="M22 18 C20 15.6 24 13.6 22 10.6" fill="none" stroke="currentColor" stroke-width="2.6" stroke-linecap="round" stroke-linejoin="round"/><path d="M28 20.5 L41.5 6.5" fill="none" stroke="currentColor" stroke-width="2.8" stroke-linecap="round" stroke-linejoin="round"/><path d="M32 21 L44 9.5" fill="none" stroke="currentColor" stroke-width="2.8" stroke-linecap="round" stroke-linejoin="round"/></svg>
