<svg xmlns="http://www.w3.org/2000/svg" viewBox="0 0 48 48" style="color:#000"><path d="M14 15.5 H34 A5 5 0 0 1 39 20.5 V35 A5 5 0 0 1 34 40 H14 A5 5 0 0 1 9 35 V20.5 A5 5 0 0 1 14 15.5 Z" fill="currentColor" fill-opacity="0.3"/><path d="M14 15.5 H34 A5 5 0 0 1 39 20.5 V35 A5 5 0 0 1 34 40 H14 A5 5 0 0 1 9 35 V20.5 A5 5 0 0 1 14 15.5 Z" fill="none" stroke="currentColor" stroke-width="3.2" stroke-linecap="round" stroke-linejoin="round"/><path d="M18.5 15.5 V11.5 A3 3 0 0 1 21.5 8.5 H26.5 A3 3 0 0 1 29.5 11.5 V15.5" fill="none" stroke="currentColor" stroke-width="3.2" stroke-linecap="round" stroke-linejoin="round"/><path d="M17 21 V34.5 M31 21 V34.5" fill="none" stroke="currentColor" stroke-width="3.2" stroke-linecap="round" stroke-linejoin="round"/><circle cx="15" cy="43.2" r="2.1" fill="currentColor"/><circle cx="33" cy="43.2" r="2.1" fill="currentColor"/></svg>
